<svg xmlns="http://www.w3.org/2000/svg" width="16.667" height="11.111" viewBox="0 0 16.667 11.111" fill="none">
  <path d="M 16.667 8.634 L 16.667 0.658 C 16.667 0.321 16.33 0.087 16.015 0.205 L 10.995 2.073 C 10.877 2.117 10.746 2.113 10.631 2.062 L 6.035 0.041 C 5.92 -0.01 5.79 -0.013 5.672 0.03 L 0.315 2.024 C 0.126 2.095 0 2.275 0 2.477 L 0 10.453 C 0 10.79 0.336 11.024 0.652 10.906 L 5.672 9.038 C 5.79 8.994 5.92 8.998 6.035 9.049 L 10.631 11.07 C 10.746 11.121 10.877 11.125 10.995 11.081 L 16.352 9.087 C 16.541 9.017 16.667 8.836 16.667 8.634 Z M 3.771 7.395 L 8.264 5.583 L 8.264 3.667 C 8.264 3.551 8.129 3.487 8.039 3.56 L 3.632 7.16 C 3.509 7.26 3.624 7.454 3.771 7.395 Z M 8.264 5.583 L 8.264 7.448 C 8.264 7.564 8.398 7.628 8.488 7.556 L 12.996 3.967 C 13.121 3.868 13.006 3.671 12.859 3.731 L 8.264 5.583 Z" fill="currentColor" fill-rule="evenodd"></path>
</svg>