<svg xmlns="http://www.w3.org/2000/svg" width="11.667" height="11.667" viewBox="0 0 11.667 11.667" fill="none">
  <path d="M 6.833 0 C 6.833 -0.552 6.386 -1 5.833 -1 C 5.281 -1 4.833 -0.552 4.833 0 L 5.833 0 L 6.833 0 Z M 4.833 11.667 C 4.833 12.219 5.281 12.667 5.833 12.667 C 6.386 12.667 6.833 12.219 6.833 11.667 L 5.833 11.667 L 4.833 11.667 Z M 0 4.833 C -0.552 4.833 -1 5.281 -1 5.833 C -1 6.386 -0.552 6.833 0 6.833 L 0 5.833 L 0 4.833 Z M 11.667 6.833 C 12.219 6.833 12.667 6.386 12.667 5.833 C 12.667 5.281 12.219 4.833 11.667 4.833 L 11.667 5.833 L 11.667 6.833 Z M 5.833 0 L 4.833 0 L 4.833 11.667 L 5.833 11.667 L 6.833 11.667 L 6.833 0 L 5.833 0 Z M 0 5.833 L 0 6.833 L 11.667 6.833 L 11.667 5.833 L 11.667 4.833 L 0 4.833 L 0 5.833 Z" fill="currentColor" fill-rule="nonzero"></path>
</svg>