<svg xmlns="http://www.w3.org/2000/svg" width="16.667" height="18.333" viewBox="0 0 16.667 18.333" fill="none">
  <path d="M 10 0 C 10.663 0 11.299 0.264 11.768 0.732 C 12.236 1.201 12.5 1.837 12.5 2.5 L 12.5 3.333 L 15.833 3.333 C 16.294 3.333 16.667 3.706 16.667 4.167 C 16.667 4.627 16.294 5 15.833 5 L 15 5 L 15 15.833 C 15 16.496 14.736 17.132 14.268 17.601 C 13.799 18.07 13.163 18.333 12.5 18.333 L 4.167 18.333 C 3.504 18.333 2.868 18.07 2.399 17.601 C 1.93 17.132 1.667 16.496 1.667 15.833 L 1.667 5 L 0.833 5 C 0.373 5 0 4.627 0 4.167 C 0 3.706 0.373 3.333 0.833 3.333 L 4.167 3.333 L 4.167 2.5 C 4.167 1.837 4.43 1.201 4.899 0.732 C 5.368 0.264 6.004 0 6.667 0 L 10 0 Z M 3.333 15.833 C 3.333 16.054 3.421 16.266 3.577 16.423 C 3.734 16.579 3.946 16.667 4.167 16.667 L 12.5 16.667 C 12.721 16.667 12.933 16.579 13.089 16.423 C 13.245 16.266 13.333 16.054 13.333 15.833 L 13.333 5 L 3.333 5 L 3.333 15.833 Z M 6.667 7.5 C 7.127 7.5 7.5 7.873 7.5 8.333 L 7.5 13.333 C 7.5 13.794 7.127 14.167 6.667 14.167 C 6.206 14.167 5.833 13.794 5.833 13.333 L 5.833 8.333 C 5.833 7.873 6.206 7.5 6.667 7.5 Z M 10 7.5 C 10.46 7.5 10.833 7.873 10.833 8.333 L 10.833 13.333 C 10.833 13.794 10.46 14.167 10 14.167 C 9.54 14.167 9.167 13.794 9.167 13.333 L 9.167 8.333 C 9.167 7.873 9.54 7.5 10 7.5 Z M 6.667 1.667 C 6.446 1.667 6.234 1.755 6.077 1.911 C 5.921 2.067 5.833 2.279 5.833 2.5 L 5.833 3.333 L 10.833 3.333 L 10.833 2.5 C 10.833 2.279 10.745 2.067 10.589 1.911 C 10.433 1.755 10.221 1.667 10 1.667 L 6.667 1.667 Z" fill="currentColor" fill-rule="nonzero"></path>
</svg>