<svg xmlns="http://www.w3.org/2000/svg" width="16.667" height="18.333" viewBox="0 0 16.667 18.333" fill="none">
  <path d="M 13.333 0 C 15.174 0 16.667 1.492 16.667 3.333 C 16.667 5.174 15.174 6.667 13.333 6.667 C 12.407 6.667 11.569 6.288 10.965 5.678 L 6.541 8.26 C 6.622 8.548 6.667 8.852 6.667 9.167 C 6.667 9.48 6.622 9.784 6.541 10.072 L 10.968 12.651 C 11.571 12.043 12.409 11.667 13.333 11.667 C 15.174 11.667 16.667 13.159 16.667 15 C 16.667 16.841 15.174 18.333 13.333 18.333 C 11.492 18.333 10 16.841 10 15 C 10 14.685 10.044 14.379 10.126 14.09 L 5.701 11.511 C 5.097 12.121 4.26 12.5 3.333 12.5 C 1.492 12.5 0 11.008 0 9.167 C 0 7.326 1.492 5.833 3.333 5.833 C 4.259 5.833 5.097 6.211 5.701 6.82 L 10.125 4.239 C 10.044 3.951 10 3.647 10 3.333 C 10 1.492 11.492 0 13.333 0 Z M 13.333 13.333 C 12.754 13.333 12.244 13.629 11.945 14.078 C 11.933 14.106 11.919 14.134 11.903 14.161 C 11.888 14.188 11.87 14.214 11.851 14.239 C 11.734 14.467 11.667 14.726 11.667 15 C 11.667 15.92 12.413 16.667 13.333 16.667 C 14.254 16.667 15 15.92 15 15 C 15 14.08 14.254 13.333 13.333 13.333 Z M 3.333 7.5 C 2.413 7.5 1.667 8.246 1.667 9.167 C 1.667 10.087 2.413 10.833 3.333 10.833 C 3.944 10.833 4.475 10.504 4.766 10.014 C 4.767 10.011 4.77 10.008 4.771 10.005 C 4.776 9.997 4.781 9.989 4.786 9.981 C 4.921 9.74 5 9.463 5 9.167 C 5 8.246 4.254 7.5 3.333 7.5 Z M 13.333 1.667 C 12.413 1.667 11.667 2.413 11.667 3.333 C 11.667 4.254 12.413 5 13.333 5 C 14.254 5 15 4.254 15 3.333 C 15 2.413 14.254 1.667 13.333 1.667 Z" fill="currentColor" fill-rule="nonzero"></path>
</svg>