<svg xmlns="http://www.w3.org/2000/svg" width="17.999" height="17.999" viewBox="0 0 17.999 17.999" fill="none">
  <path d="M 10.423 1.085 C 10.246 0.444 9.664 0 8.999 0 C 8.334 0 7.752 0.444 7.576 1.085 L 6.901 3.537 C 6.782 3.969 6.723 4.185 6.646 4.381 C 6.24 5.418 5.419 6.239 4.381 6.646 C 4.185 6.723 3.969 6.782 3.537 6.901 L 1.085 7.575 C 0.444 7.752 0 8.334 0 8.999 C 0 9.664 0.444 10.246 1.085 10.423 L 3.537 11.097 C 3.969 11.216 4.185 11.275 4.381 11.352 C 5.418 11.758 6.239 12.579 6.646 13.617 C 6.722 13.813 6.782 14.029 6.901 14.461 L 7.576 16.914 C 7.752 17.555 8.334 17.999 8.999 17.999 C 9.664 17.999 10.246 17.555 10.423 16.914 L 11.097 14.462 C 11.216 14.029 11.276 13.813 11.352 13.617 C 11.759 12.579 12.58 11.759 13.617 11.352 C 13.813 11.275 14.029 11.216 14.462 11.097 L 16.914 10.423 C 17.555 10.246 17.999 9.664 17.999 8.999 C 17.999 8.334 17.555 7.752 16.914 7.575 L 14.461 6.901 C 14.029 6.782 13.813 6.722 13.617 6.646 C 12.579 6.239 11.758 5.418 11.352 4.381 C 11.275 4.185 11.216 3.969 11.097 3.536 L 10.423 1.085 Z" fill="currentColor" fill-rule="evenodd"></path>
</svg>