<svg xmlns="http://www.w3.org/2000/svg" width="12" height="18" viewBox="0 0 12 18" fill="none">
  <path d="M 9.893 0 C 10.231 0 10.562 0.027 10.885 0.082 C 11.209 0.131 11.474 0.221 11.682 0.351 C 11.894 0.482 12 0.667 12 0.907 C 12 1.113 11.941 1.274 11.825 1.388 C 11.714 1.502 11.57 1.56 11.394 1.56 C 11.222 1.56 11.027 1.538 10.809 1.494 C 10.597 1.451 10.249 1.429 9.763 1.429 C 9.061 1.429 8.508 1.655 8.104 2.106 C 7.699 2.558 7.432 3.279 7.3 4.27 L 6.87 7.568 L 11.143 7.568 C 11.345 7.568 11.512 7.635 11.643 7.771 C 11.775 7.902 11.84 8.071 11.84 8.277 C 11.84 8.489 11.777 8.664 11.651 8.8 C 11.525 8.93 11.36 8.996 11.158 8.996 L 6.684 8.996 L 6.034 13.984 C 5.857 15.328 5.427 16.332 4.745 16.995 C 4.068 17.665 3.189 18 2.107 18 C 1.769 18 1.438 17.973 1.115 17.918 C 0.792 17.869 0.523 17.777 0.311 17.641 C 0.104 17.51 0 17.322 0 17.077 C 0 16.87 0.056 16.71 0.167 16.596 C 0.283 16.482 0.433 16.424 0.614 16.424 C 0.801 16.424 0.996 16.449 1.198 16.498 C 1.4 16.547 1.744 16.571 2.229 16.571 C 2.931 16.571 3.485 16.346 3.889 15.894 C 4.298 15.442 4.566 14.721 4.693 13.73 L 5.313 8.996 L 1.63 8.996 C 1.423 8.996 1.253 8.93 1.122 8.8 C 0.99 8.664 0.925 8.49 0.925 8.277 C 0.925 8.071 0.988 7.902 1.115 7.771 C 1.246 7.635 1.413 7.568 1.615 7.568 L 5.501 7.568 L 5.966 4.016 C 6.138 2.672 6.562 1.668 7.24 1.005 C 7.922 0.335 8.806 0 9.893 0 Z" fill="currentColor" fill-rule="nonzero"></path>
</svg>